HIERARCHY
ROOT Hips
{
	OFFSET 0.000000 0.000000 0.000000
	CHANNELS 6 Xposition Yposition Zposition Zrotation Yrotation Xrotation 
	JOINT LeftUpLeg_virtual
	{
		OFFSET 0.000000 0.000000 0.000000
		CHANNELS 3 Zrotation Yrotation Xrotation
		JOINT LeftUpLeg
		{
			OFFSET 10.205400 -3.823500 0.155100
			CHANNELS 3 Zrotation Yrotation Xrotation
			JOINT LeftLeg
			{
				OFFSET 0.708757 -12.982077 0.567790
				CHANNELS 3 Zrotation Yrotation Xrotation
				JOINT LeftFoot
				{
					OFFSET -0.708756 -10.717838 -2.184338
					CHANNELS 3 Zrotation Yrotation Xrotation
					JOINT LeftToeBase
					{
						OFFSET 0.108149 -7.191104 7.560241
						CHANNELS 3 Zrotation Yrotation Xrotation
						End Site
						{
							OFFSET 0.000000 0.000000 0.000000
						}
					}
				}
			}
		}
	}
	JOINT RightUpLeg_virtual
	{
		OFFSET 0.000000 0.000000 0.000000
		CHANNELS 3 Zrotation Yrotation Xrotation
		JOINT RightUpLeg
		{
			OFFSET -10.205400 -3.823500 0.005500
			CHANNELS 3 Zrotation Yrotation Xrotation
			JOINT RightLeg
			{
				OFFSET -0.708756 -12.982134 0.610632
				CHANNELS 3 Zrotation Yrotation Xrotation
				JOINT RightFoot
				{
					OFFSET 0.708754 -10.717769 -1.945823
					CHANNELS 3 Zrotation Yrotation Xrotation
					JOINT RightToeBase
					{
						OFFSET -0.108140 -7.191069 7.372968
						CHANNELS 3 Zrotation Yrotation Xrotation
						End Site
						{
							OFFSET 0.000000 0.000000 0.000000
						}
					}
				}
			}
		}
	}
	JOINT Spine_virtual
	{
		OFFSET 0.000000 0.000000 0.000000
		CHANNELS 3 Zrotation Yrotation Xrotation
		JOINT Spine
		{
			OFFSET 0.000000 6.876099 0.125700
			CHANNELS 3 Zrotation Yrotation Xrotation
			JOINT Spine1
			{
				OFFSET 0.000000 8.022060 0.146608
				CHANNELS 3 Zrotation Yrotation Xrotation
				JOINT Spine2
				{
					OFFSET 0.000000 9.168068 0.167552
					CHANNELS 3 Zrotation Yrotation Xrotation
					JOINT Neck_virtual
					{
						OFFSET 0.000000 0.000000 0.000000
						CHANNELS 3 Zrotation Yrotation Xrotation
						JOINT Neck
						{
							OFFSET 0.000000 10.314075 0.188496
							CHANNELS 3 Zrotation Yrotation Xrotation
							JOINT Head
							{
								OFFSET 0.000000 7.643700 -2.377400
								CHANNELS 3 Zrotation Yrotation Xrotation
								End Site
								{
									OFFSET 0.000000 0.000000 0.000000
								}
							}
						}
					}
					JOINT LeftShoulder_virtual
					{
						OFFSET 0.000000 0.000000 0.000000
						CHANNELS 3 Zrotation Yrotation Xrotation
						JOINT LeftShoulder
						{
							OFFSET 4.392200 8.824978 0.174984
							CHANNELS 3 Zrotation Yrotation Xrotation
							JOINT LeftArm
							{
								OFFSET 8.771219 -2.981674 -0.026999
								CHANNELS 3 Zrotation Yrotation Xrotation
								JOINT LeftForeArm
								{
									OFFSET 8.512804 0.000000 -0.000000
									CHANNELS 3 Zrotation Yrotation Xrotation
									JOINT LeftHand
									{
										OFFSET 18.484802 0.000000 -0.000000
										CHANNELS 3 Zrotation Yrotation Xrotation
										End Site
										{
											OFFSET 0.000000 0.000000 0.000000
										}
									}
								}
							}
						}
					}
					JOINT RightShoulder_virtual
					{
						OFFSET 0.000000 0.000000 0.000000
						CHANNELS 3 Zrotation Yrotation Xrotation
						JOINT RightShoulder
						{
							OFFSET -4.392200 8.824993 0.141379
							CHANNELS 3 Zrotation Yrotation Xrotation
							JOINT RightArm
							{
								OFFSET -8.771282 -2.981682 -0.094208
								CHANNELS 3 Zrotation Yrotation Xrotation
								JOINT RightForeArm
								{
									OFFSET -8.494598 0.000000 0.000000
									CHANNELS 3 Zrotation Yrotation Xrotation
									JOINT RightHand
									{
										OFFSET -18.483803 0.000000 0.000001
										CHANNELS 3 Zrotation Yrotation Xrotation
										End Site
										{
											OFFSET 0.000000 0.000000 0.000000
										}
									}
								}
							}
						}
					}
				}
			}
		}
	}
}
MOTION
Frames: 11
Frame Time: 0.033333
27.691084 36.239231 67.216553 179.710883 18.678621 179.522110 -3.051410 -0.295649 6.024493 1.199406 -3.422890 -16.460915 16.859919 10.422778 19.826806 -3.776257 5.265187 15.522073 0.000000 0.000000 0.000000 2.670787 0.548619 3.928769 8.342720 1.108577 -8.832871 -4.350997 1.143092 11.498888 2.867719 8.742094 3.889896 0.000000 0.000000 0.000000 0.431933 2.252805 -3.906798 2.374222 -2.944977 -6.301061 -1.478213 -1.159152 9.355186 0.013702 0.183482 -0.062384 -1.965016 0.642243 11.818173 -0.820001 -2.629165 -2.305646 0.000000 0.000000 0.000000 -0.382256 1.535109 9.292865 -14.206027 -8.896424 3.893327 -51.951542 19.134937 15.852410 1.982610 -39.735196 6.988704 0.000000 0.000000 0.000000 -4.471496 2.738897 8.638839 25.181301 2.098767 0.761050 51.480990 -19.315189 25.915109 -9.278097 35.876883 -8.235415 0.000000 0.000000 0.000000 
27.870899 36.247631 67.204353 179.525539 18.247106 179.431747 -2.995789 -0.107445 6.512345 1.606541 -3.271045 -16.983858 16.655167 10.546063 19.741747 -3.983320 5.109445 15.633483 0.000000 0.000000 0.000000 3.069370 0.538134 4.145231 8.733157 1.224733 -9.468797 -4.260151 0.215947 11.135955 2.605257 8.560121 3.559471 0.000000 0.000000 0.000000 0.246065 2.307411 -3.593983 2.325745 -3.005195 -6.314508 -1.460971 -1.286417 9.452470 0.053350 0.123674 -0.096143 -2.062339 0.974445 11.650821 -0.772874 -2.737458 -2.447795 0.000000 0.000000 0.000000 -0.442801 1.693117 9.180487 -14.043163 -8.690413 3.923600 -51.767964 19.331800 15.698732 1.940203 -39.761779 7.068407 0.000000 0.000000 0.000000 -4.564884 2.947880 8.673871 25.093331 2.304646 0.772294 51.529898 -19.007158 25.997285 -9.219388 36.050094 -8.245812 0.000000 0.000000 0.000000 
28.070293 36.247494 67.193619 179.543502 17.475565 179.522916 -2.853381 -0.379861 7.251299 2.158160 -3.467158 -18.275894 16.461270 10.661995 20.142767 -4.357021 4.851770 15.950469 0.000000 0.000000 0.000000 3.429103 0.389341 4.757448 8.832871 1.728741 -10.023864 -4.273871 0.146762 11.134107 1.968498 8.287167 3.598634 0.000000 0.000000 0.000000 0.452296 2.127924 -3.219098 2.217761 -2.898647 -6.343523 -1.572352 -1.235195 9.427830 0.001946 0.135764 -0.069531 -2.089874 0.770870 11.725463 -0.726132 -2.874077 -2.420570 0.000000 0.000000 0.000000 -0.423455 1.708497 9.194276 -13.839781 -8.640962 3.893957 -51.463973 19.541823 15.567900 1.896662 -39.838909 7.185198 0.000000 0.000000 0.000000 -4.541404 2.835808 8.727004 25.105718 2.352119 0.758989 51.439350 -18.552595 26.194025 -9.114029 36.314507 -8.182598 0.000000 0.000000 0.000000 
28.237404 36.225506 67.187286 179.716853 16.758021 179.557026 -2.536447 -0.979875 8.078516 2.512976 -4.541378 -19.942380 16.778927 9.804451 21.615527 -4.435502 4.835236 16.344989 0.000000 0.000000 0.000000 3.870418 -0.065010 5.147902 8.867300 2.352484 -10.534862 -4.345220 0.296762 11.298867 1.161705 7.982588 3.443413 0.000000 0.000000 0.000000 0.851592 1.705088 -2.778061 2.136428 -2.764050 -6.169036 -1.578932 -1.230802 9.421807 0.028529 0.120394 -0.080993 -2.142375 0.908769 11.874789 -0.648486 -3.007582 -2.492163 0.000000 0.000000 0.000000 -0.549418 1.652635 9.280746 -13.685664 -8.518461 3.906289 -51.177286 19.882221 15.653772 1.809752 -39.927531 7.366996 0.000000 0.000000 0.000000 -4.633233 2.898760 8.768799 25.084076 2.280235 0.670912 51.188204 -18.078321 26.489282 -8.929937 36.414559 -8.073956 0.000000 0.000000 0.000000 
28.346802 36.181129 67.174820 179.876310 15.825699 179.657252 -2.146851 -1.934362 8.482339 2.534654 -6.293213 -21.888144 17.539180 9.122733 24.416328 -4.076636 5.115473 16.344166 0.000000 0.000000 0.000000 4.315924 -0.892751 5.209574 8.876805 3.082841 -10.769632 -4.435235 0.433778 11.573850 0.200400 7.726359 3.006124 0.000000 0.000000 0.000000 1.374335 1.166892 -2.518666 2.087332 -2.516757 -5.849723 -1.628760 -1.187746 9.493005 0.021989 0.102994 -0.028157 -2.198958 0.899267 11.865312 -0.648321 -3.219825 -2.812710 0.000000 0.000000 0.000000 -0.596872 1.664217 9.430984 -13.619112 -8.717494 3.859462 -51.027852 20.185309 15.861588 1.715289 -40.073287 7.596588 0.000000 0.000000 0.000000 -4.632333 2.858768 8.695159 25.004482 2.141254 0.666585 50.854761 -17.401136 26.670026 -8.667092 36.292658 -7.974067 0.000000 0.000000 0.000000 
28.409775 36.123924 67.100731 179.938984 14.983705 179.754187 -1.753243 -2.750555 8.489599 1.976480 -8.598048 -24.377633 18.363985 8.474514 28.117187 -3.491565 5.568984 16.404099 0.000000 0.000000 0.000000 4.511465 -1.618952 5.089218 9.097738 3.829367 -10.662171 -4.747892 0.372223 12.006727 -0.798470 7.602690 2.536599 0.000000 0.000000 0.000000 1.828090 0.597235 -2.333943 2.160909 -2.276967 -5.427324 -1.637179 -1.209609 9.507862 0.015694 0.057894 -0.026385 -2.247447 1.086910 11.881363 -0.591764 -3.344723 -3.171947 0.000000 0.000000 0.000000 -0.661110 1.695967 9.519388 -13.663618 -8.730307 3.979147 -51.087978 20.552615 16.392746 1.708764 -40.396761 7.764392 0.000000 0.000000 0.000000 -4.647999 2.919179 8.732137 24.862174 2.151091 0.607523 50.521581 -16.759199 26.847705 -8.411924 35.996446 -7.794718 0.000000 0.000000 0.000000 
28.451574 36.084011 66.985229 179.963477 14.102397 179.855628 -1.288440 -3.375306 8.202100 0.834465 -10.993787 -27.318952 19.065153 8.240634 31.722295 -3.188623 5.843249 16.530770 0.000000 0.000000 0.000000 4.628134 -2.185632 4.883369 9.274313 4.599352 -10.344783 -5.193102 0.582578 12.414216 -1.662110 7.492621 1.935923 0.000000 0.000000 0.000000 2.288388 0.127136 -2.194452 2.305366 -1.983527 -5.022191 -1.679053 -1.200220 9.610226 0.013854 0.048358 -0.021262 -2.247932 1.107012 11.906419 -0.583963 -3.481860 -3.569417 0.000000 0.000000 0.000000 -0.686350 1.696632 9.574844 -13.627575 -8.645467 3.842632 -51.263869 21.134537 16.888623 1.545153 -40.845768 8.058746 0.000000 0.000000 0.000000 -4.683944 2.909000 8.722063 24.624152 2.147398 0.605735 50.184699 -16.091823 26.735078 -8.014761 35.508808 -7.633305 0.000000 0.000000 0.000000 
28.487993 36.070641 66.805634 179.985033 13.061547 179.856107 -0.883209 -3.901231 7.913353 -0.526916 -13.034901 -30.305420 19.070638 7.978261 34.051515 -3.459927 5.670791 16.049213 0.000000 0.000000 0.000000 4.790157 -2.640863 4.771532 9.285881 5.417934 -9.892366 -5.505983 0.679508 12.644250 -2.567549 7.197684 1.268915 0.000000 0.000000 0.000000 2.654454 -0.233916 -1.956379 2.582465 -1.659865 -4.659399 -1.720928 -1.217887 9.640330 -0.021474 0.000177 0.001767 -2.274917 0.899116 11.958768 -0.581741 -3.530073 -3.990208 0.000000 0.000000 0.000000 -0.698931 1.679656 9.628770 -13.503625 -8.585344 3.744670 -51.644795 21.763284 17.587618 1.659211 -41.345771 8.140173 0.000000 0.000000 0.000000 -4.654894 2.899614 8.792421 24.370159 2.136191 0.628633 50.143236 -15.430552 26.453063 -7.639623 34.896478 -7.495974 0.000000 0.000000 0.000000 
28.532057 36.075096 66.521683 179.981126 12.127356 179.864180 -0.743822 -4.178014 7.782511 -1.815049 -14.287496 -33.104803 18.882256 7.660668 34.695066 -4.179113 5.208595 15.270903 0.000000 0.000000 0.000000 5.031909 -2.736081 4.908166 9.097894 6.010123 -9.347542 -5.735008 0.573129 12.964730 -3.415686 6.835566 0.240602 0.000000 0.000000 0.000000 2.914270 -0.429451 -1.679354 2.923831 -1.322062 -4.429572 -1.769325 -1.216067 9.645468 -0.012562 -0.002964 0.059521 -2.325938 0.881621 11.918447 -0.712386 -3.627578 -4.342655 0.000000 0.000000 0.000000 -0.726999 1.659641 9.664054 -13.283602 -8.438782 3.608180 -52.107797 22.538356 18.149602 1.584410 -41.629033 8.382813 0.000000 0.000000 0.000000 -4.706513 2.836441 8.742125 24.092569 2.079698 0.662900 50.316668 -14.929378 25.859163 -7.280596 34.310602 -7.373994 0.000000 0.000000 0.000000 
28.604900 36.082329 66.123680 -179.963163 11.455614 179.934558 -0.624011 -4.229427 7.798856 -2.978204 -15.070662 -35.723863 18.876457 7.967219 33.372687 -4.408659 5.223020 15.832898 0.000000 0.000000 0.000000 5.372287 -2.662451 5.141378 8.967515 6.318014 -8.752014 -6.105197 0.304391 13.539538 -3.980408 6.617254 -1.043905 0.000000 0.000000 0.000000 3.129340 -0.508595 -1.376533 3.298966 -1.007840 -4.346133 -1.801983 -1.193175 9.646679 0.001700 0.019177 -0.011788 -2.401162 0.997924 11.977876 -0.899096 -3.668034 -4.579263 0.000000 0.000000 0.000000 -0.797028 1.658451 9.740577 -13.029776 -8.257419 3.540877 -52.644612 23.232356 18.863483 1.760907 -41.539465 8.403283 0.000000 0.000000 0.000000 -4.792243 2.858844 8.827359 23.812901 2.041312 0.745395 50.677989 -14.362698 25.283786 -7.007796 33.854495 -7.342560 0.000000 0.000000 0.000000 
28.689613 36.060139 65.583069 -179.962589 11.027749 -179.968135 -0.624794 -4.338446 7.833612 -4.107797 -15.308913 -37.964466 18.755288 8.551628 30.244843 -4.693443 5.177870 16.484656 0.000000 0.000000 0.000000 5.587173 -2.644928 5.428279 8.891952 6.345993 -8.156275 -6.425169 0.195375 14.271770 -4.246283 6.484625 -2.663277 0.000000 0.000000 0.000000 3.248286 -0.560108 -1.065038 3.610753 -0.777944 -4.360926 -1.845989 -1.197635 9.609943 -0.004085 -0.011559 -0.017751 -2.432196 1.094213 11.990163 -1.120066 -3.666357 -4.732150 0.000000 0.000000 0.000000 -0.807075 1.690077 9.757471 -12.696786 -8.072249 3.395295 -53.137229 23.953431 19.409009 1.994952 -40.968400 8.406141 0.000000 0.000000 0.000000 -4.812020 2.894177 8.866876 23.500586 2.055921 0.865031 51.147742 -13.817232 24.876763 -6.841993 33.553465 -7.378461 0.000000 0.000000 0.000000 
